<svg xmlns="http://www.w3.org/2000/svg" width="352.915" height="413.549" viewBox="0 0 352.915 413.549">
  <defs>
    <style>
      .cls-1 {
        fill: #fff;
        stroke: #1d1d1b;
        stroke-miterlimit: 10;
        stroke-width: 6.742px;
      }

      .cls-2 {
        fill: #1d1d1b;
      }
    </style>
  </defs>
  <title>dato_normale</title>
  <g id="Livello_2" data-name="Livello 2">
    <g id="Livello_2-2" data-name="Livello 2">
      <path class="cls-1" d="M227.817,3.371h8.049L348.213,109.916V390.3a19.874,19.874,0,0,1-19.875,19.874H23.246A19.874,19.874,0,0,1,3.371,390.3V23.246A19.875,19.875,0,0,1,23.246,3.371H227.817"/>
      <path class="cls-1" d="M231.763,3.9v98.192a16.158,16.158,0,0,0,16.157,16.158l101.624-.648v-7.946L235.462,3.962Z"/>
    </g>
    <g id="Livello_1-2" data-name="Livello 1">
      <rect class="cls-2" x="41.987" y="200.401" width="263.72" height="20.509" rx="5.97"/>
      <rect class="cls-2" x="41.987" y="253.799" width="263.72" height="20.509" rx="7.115"/>
      <rect class="cls-2" x="41.987" y="305.017" width="263.72" height="20.509" rx="6.982"/>
    </g>
  </g>
</svg>
