<svg xmlns="http://www.w3.org/2000/svg" width="352.915" height="413.549" viewBox="0 0 352.915 413.549">
  <defs>
    <style>
      .cls-1 {
        fill: #fff;
        stroke-width: 6.742px;
      }

      .cls-1, .cls-2 {
        stroke: #1d1d1b;
        stroke-miterlimit: 10;
      }

      .cls-2 {
        fill: #1d1d1b;
        stroke-width: 3.149px;
      }
    </style>
  </defs>
  <title>dato_pericoloso</title>
  <g id="Livello_2" data-name="Livello 2">
    <g id="Livello_2-2" data-name="Livello 2">
      <path class="cls-1" d="M227.817,3.371h8.049L348.213,109.916V390.3a19.874,19.874,0,0,1-19.875,19.874H23.246A19.874,19.874,0,0,1,3.371,390.3V23.246A19.875,19.875,0,0,1,23.246,3.371H227.817"/>
      <path class="cls-1" d="M231.763,3.9v98.192a16.158,16.158,0,0,0,16.157,16.158l101.624-.648v-7.946L235.462,3.962Z"/>
    </g>
    <g id="Livello_7" data-name="Livello 7">
      <path class="cls-2" d="M157.865,228.645a25.2,25.2,0,1,1-10.422,20.412,25.077,25.077,0,0,1,10.422-20.412"/>
      <path class="cls-2" d="M116.964,257.792a76.3,76.3,0,0,1,31.6-61.894l-34.415-51.8a138.4,138.4,0,0,0-59.34,113.692Z"/>
      <path class="cls-2" d="M208.157,296.286a76.3,76.3,0,0,1-69.485-1.084l-31.327,53.722a138.4,138.4,0,0,0,128.208,3.153Z"/>
      <path class="cls-2" d="M227.224,257.792a76.3,76.3,0,0,0-31.6-61.894l34.415-51.8a138.4,138.4,0,0,1,59.339,113.692Z"/>
    </g>
  </g>
</svg>
