<svg xmlns="http://www.w3.org/2000/svg" width="352.915" height="413.549" viewBox="0 0 352.915 413.549">
  <defs>
    <style>
      .cls-1 {
        fill: #fff;
        stroke-width: 6.742px;
      }

      .cls-1, .cls-2, .cls-3 {
        stroke: #1d1d1b;
        stroke-miterlimit: 10;
      }

      .cls-2, .cls-3 {
        fill: #1d1d1b;
      }

      .cls-2 {
        stroke-width: 4.222px;
      }

      .cls-3 {
        stroke-width: 4.123px;
      }
    </style>
  </defs>
  <title>dato_esclamativo</title>
  <g id="Livello_2" data-name="Livello 2">
    <g id="Livello_2-2" data-name="Livello 2">
      <path class="cls-1" d="M227.817,3.371h8.049L348.213,109.916V390.3a19.874,19.874,0,0,1-19.875,19.874H23.246A19.874,19.874,0,0,1,3.371,390.3V23.246A19.875,19.875,0,0,1,23.246,3.371H227.817"/>
      <path class="cls-1" d="M231.763,3.9v98.192a16.158,16.158,0,0,0,16.157,16.158l101.624-.648v-7.946L235.462,3.962Z"/>
    </g>
    <g id="Livello_6" data-name="Livello 6">
      <polygon class="cls-2" points="179.692 280.94 158.164 280.418 150.749 112.729 186.75 112.651 179.692 280.94"/>
      <circle class="cls-3" cx="167.14" cy="328.991" r="24.222"/>
    </g>
  </g>
</svg>
